<?xml version="1.0" standalone="no"?>
<svg version="1.0" xmlns="http://www.w3.org/2000/svg"
 width="436.000000pt" height="127.000000pt" viewBox="0 0 436.000000 127.000000"
 preserveAspectRatio="xMidYMid meet">
<metadata>
Created by potrace 1.16, written by Peter Selinger 2001-2019
</metadata>
<g transform="translate(0.000000,127.000000) scale(0.100000,-0.100000)"
fill="#2D6DBA" stroke="none">
<path d="M425 1114 c-123 -31 -228 -117 -288 -236 -18 -36 -22 -60 -22 -153 0
-104 2 -113 32 -170 81 -153 198 -224 375 -225 110 0 200 23 271 68 l37 25 0
153 0 154 -120 0 -120 0 0 -70 0 -70 55 0 55 0 0 -39 c0 -44 -10 -55 -71 -76
-141 -51 -296 22 -350 164 -53 140 29 291 185 341 62 20 137 8 217 -33 38 -21
74 -37 78 -37 9 0 81 89 81 100 0 13 -100 71 -157 91 -79 27 -183 32 -258 13z"/>
<path d="M1142 924 c-51 -13 -72 -24 -104 -57 -66 -69 -91 -119 -96 -202 -6
-98 11 -165 59 -225 49 -62 71 -76 143 -95 136 -36 307 3 347 77 10 18 5 26
-30 61 l-41 41 -27 -26 c-42 -39 -66 -48 -128 -48 -74 0 -114 20 -147 74 -16
23 -28 46 -28 50 0 3 100 6 221 6 l222 0 -5 83 c-9 138 -65 231 -156 257 -65
19 -163 20 -230 4z m203 -130 c21 -13 31 -33 49 -86 5 -17 -7 -18 -149 -18
-85 0 -155 4 -155 8 0 4 13 29 30 55 20 31 38 48 57 53 15 3 33 7 38 10 20 7
108 -7 130 -22z"/>
<path d="M1902 925 c-32 -7 -65 -24 -83 -41 l-29 -28 0 37 0 37 -75 0 -75 0 0
-295 0 -295 75 0 75 0 0 165 c0 158 1 168 26 216 45 91 145 113 217 49 l32
-28 3 -201 3 -201 68 0 69 0 4 168 c3 153 6 171 27 209 67 117 198 120 247 6
10 -23 14 -81 14 -208 l0 -175 70 0 70 0 0 223 c0 247 -7 277 -68 329 -89 75
-294 53 -356 -38 l-23 -35 -13 31 c-30 73 -152 106 -278 75z"/>
<path d="M3060 928 c-25 -5 -60 -21 -77 -34 l-33 -25 0 30 0 31 -75 0 -75 0 0
-405 0 -405 75 0 75 0 0 142 0 141 24 -22 c49 -47 160 -62 266 -38 44 9 64 21
101 59 65 65 82 107 87 209 5 105 -11 164 -65 230 -47 58 -63 68 -133 85 -64
15 -107 16 -170 2z m134 -129 c44 -20 80 -86 84 -156 4 -57 1 -67 -27 -111
-95 -148 -301 -81 -301 98 0 67 31 135 74 161 36 22 130 26 170 8z"/>
<path d="M3705 927 c-27 -8 -64 -21 -81 -30 -40 -21 -103 -108 -121 -167 -19
-60 -12 -172 14 -230 29 -64 99 -135 148 -150 116 -33 266 -19 336 32 48 35
55 50 35 75 -8 10 -24 29 -35 43 l-19 25 -43 -35 c-39 -31 -51 -35 -114 -38
-61 -3 -75 0 -105 20 -19 13 -45 43 -58 66 l-23 42 221 0 222 0 -4 88 c-7 134
-63 225 -156 252 -60 17 -163 21 -217 7z m187 -128 c18 -10 40 -45 52 -86 l7
-23 -155 0 c-86 0 -156 4 -156 8 0 4 13 29 30 55 20 31 38 48 57 53 15 3 33 7
38 10 16 6 107 -6 127 -17z"/>
<path d="M4170 460 c-12 -12 -20 -33 -20 -55 0 -47 29 -75 78 -75 75 0 111 79
59 128 -30 29 -89 30 -117 2z"/>
</g>
</svg>
